<svg width="194" height="159" viewBox="0 0 194 159" fill="none" xmlns="http://www.w3.org/2000/svg">
<g filter="url(#filter0_f_183_500)">
<path d="M144.742 88H45.3947L4 4H190L144.742 88Z" fill="url(#paint0_linear_183_500)"/>
</g>
<path d="M141 77C147.627 77 153.064 82.386 152.405 88.9806C150.674 106.297 145.222 122.457 136.744 134.983C126.336 150.361 112.22 159 97.5 159C82.7805 159 68.6638 150.361 58.2556 134.983C49.7779 122.457 44.3261 106.297 42.5953 88.9806C41.9362 82.3861 47.3726 77 54 77L141 77Z" fill="url(#paint1_linear_183_500)"/>
<defs>
<filter id="filter0_f_183_500" x="0" y="0" width="194" height="92" filterUnits="userSpaceOnUse" color-interpolation-filters="sRGB">
<feFlood flood-opacity="0" result="BackgroundImageFix"/>
<feBlend mode="normal" in="SourceGraphic" in2="BackgroundImageFix" result="shape"/>
<feGaussianBlur stdDeviation="2" result="effect1_foregroundBlur_183_500"/>
</filter>
<linearGradient id="paint0_linear_183_500" x1="97" y1="4" x2="97" y2="88" gradientUnits="userSpaceOnUse">
<stop offset="0.335" stop-color="white"/>
<stop offset="1" stop-color="#D8E9FF"/>
</linearGradient>
<linearGradient id="paint1_linear_183_500" x1="115.631" y1="77" x2="115.631" y2="159" gradientUnits="userSpaceOnUse">
<stop stop-color="#007CF0"/>
<stop offset="1" stop-color="#003376"/>
</linearGradient>
</defs>
</svg>
